<svg xmlns="http://www.w3.org/2000/svg">
  <defs>
    <style>
      display: none;
      .cls-1 {
        fill: #fff;
        fill-rule: evenodd;
      }
    </style>
  </defs>
  <symbol id="twitr" viewBox="0 0 24 19.5">
  <path d="M23.992,2.318 C23.109,2.709 22.160,2.974 21.164,3.093 C22.181,2.484 22.962,1.519 23.329,0.370 C22.378,0.934 21.324,1.343 20.202,1.564 C19.305,0.607 18.025,0.009 16.608,0.009 C13.889,0.009 11.684,2.213 11.684,4.932 C11.684,5.318 11.728,5.693 11.812,6.054 C7.719,5.848 4.091,3.889 1.663,0.910 C1.239,1.637 0.996,2.484 0.996,3.385 C0.996,5.093 1.866,6.600 3.187,7.483 C2.379,7.457 1.620,7.236 0.957,6.867 C0.956,6.887 0.956,6.908 0.956,6.929 C0.956,9.314 2.653,11.304 4.906,11.756 C4.493,11.869 4.058,11.929 3.609,11.929 C3.291,11.929 2.983,11.898 2.682,11.840 C3.309,13.796 5.127,15.219 7.282,15.259 C5.597,16.579 3.474,17.367 1.167,17.367 C0.769,17.367 0.377,17.343 -0.008,17.297 C2.171,18.694 4.759,19.509 7.540,19.509 C16.597,19.509 21.549,12.008 21.549,5.503 C21.549,5.289 21.545,5.077 21.535,4.866 C22.498,4.172 23.332,3.305 23.992,2.318 Z" class="cls-1"/>
  </symbol>
  <symbol id="fbook" viewBox="0 0 12.719 24">
    <path d="M2.823,13.273 L2.823,24.010 L8.174,24.010 L8.174,13.324 L11.827,13.324 L12.710,8.869 L8.212,8.869 C8.212,8.869 8.212,6.773 8.212,5.601 C8.212,5.150 8.459,4.546 9.208,4.546 C10.361,4.546 11.808,4.546 11.808,4.546 L11.808,0.009 C11.808,0.009 9.465,0.009 6.952,0.009 C5.278,0.009 2.804,2.023 2.804,4.165 C2.804,6.369 2.804,8.743 2.804,8.743 L-0.003,8.743 L-0.003,13.253 L2.823,13.273 Z" class="cls-1"/>
  </symbol>
  <symbol id="linkedin" viewBox="0 0 24 24">
    <path d="M5.427,2.611 C5.427,4.047 4.380,5.211 2.659,5.211 C1.039,5.211 -0.008,4.047 -0.008,2.611 C-0.008,1.141 1.074,0.011 2.727,0.011 C4.380,0.011 5.393,1.141 5.427,2.611 ZM0.128,23.990 L0.128,7.264 L5.259,7.264 L5.259,23.990 L0.128,23.990 ZM8.329,12.599 C8.329,10.513 8.262,8.769 8.193,7.264 L12.649,7.264 L12.887,9.591 L12.988,9.591 C13.663,8.495 15.317,6.888 18.085,6.888 C21.460,6.888 23.992,9.180 23.992,14.105 L23.992,23.991 L18.861,23.991 L18.861,14.722 C18.861,12.567 18.117,11.095 16.261,11.095 C14.844,11.095 14.001,12.087 13.629,13.045 C13.494,13.387 13.460,13.865 13.460,14.345 L13.460,23.991 L8.329,23.991 L8.329,12.599 Z" class="cls-1"/>
  </symbol>
  <symbol id="vimeo" viewBox="0 0 24.25 21.22">
    <path d="M0.008,5.779 L0.993,7.073 C0.993,7.073 3.024,5.469 3.701,6.271 C4.378,7.073 6.963,16.759 7.826,18.545 C8.579,20.112 10.656,22.184 12.935,20.705 C15.211,19.225 22.783,12.748 24.138,5.099 C25.492,-2.547 15.027,-0.945 13.918,5.716 C16.689,4.050 18.168,6.393 16.750,9.047 C15.335,11.698 14.042,13.428 13.365,13.428 C12.689,13.428 12.169,11.654 11.394,8.553 C10.594,5.346 10.599,-0.428 7.271,0.226 C4.133,0.844 0.008,5.779 0.008,5.779 Z" class="cls-1"/>
  </symbol>
  <symbol id="behance" viewBox="0 0 23.938 16.16">
    <path d="M9.654,7.219 C9.654,7.219 11.921,7.039 11.921,4.206 C11.921,1.375 10.066,-0.008 7.718,-0.008 L-0.011,-0.008 L-0.011,15.821 L7.718,15.821 C7.718,15.821 12.435,15.979 12.435,11.150 C12.436,11.150 12.641,7.219 9.654,7.219 ZM3.395,2.805 L7.718,2.805 C7.718,2.805 8.768,2.805 8.768,4.452 C8.768,6.099 8.150,6.338 7.448,6.338 L3.395,6.338 L3.395,2.805 ZM7.499,13.008 L3.395,13.008 L3.395,8.777 L7.718,8.777 C7.718,8.777 9.284,8.755 9.284,10.950 C9.284,12.803 8.114,12.995 7.499,13.008 ZM18.729,4.020 C13.016,4.020 13.021,10.100 13.021,10.100 C13.021,10.100 12.629,16.150 18.729,16.150 C18.729,16.150 23.811,16.461 23.811,11.940 L21.198,11.940 C21.198,11.940 21.284,13.643 18.816,13.643 C18.816,13.643 16.201,13.829 16.201,10.891 L23.898,10.891 C23.900,10.892 24.742,4.020 18.729,4.020 ZM21.053,8.779 L16.174,8.779 C16.174,8.779 16.494,6.338 18.788,6.338 C21.080,6.338 21.053,8.779 21.053,8.779 ZM21.663,0.924 L15.533,0.924 L15.533,2.873 L21.661,2.873 L21.661,0.924 L21.663,0.924 Z" class="cls-1"/>
  </symbol>
</svg>
