<svg xmlns="http://www.w3.org/2000/svg" xmlns:xlink="http://www.w3.org/1999/xlink" preserveAspectRatio="xMidYMid" width="22" height="13" viewBox="0 0 22 13">
  <defs>
    <style>
      .cls-1 {
        fill: #fff;
        fill-rule: evenodd;
      }
    </style>
  </defs>
  <path d="M19.873,1.840 L14.359,1.840 L14.359,0.539 L19.873,0.539 L19.873,1.840 L19.873,1.840 ZM10.688,7.172 C11.044,7.695 11.222,8.330 11.222,9.076 C11.222,9.847 11.021,10.539 10.614,11.150 C10.354,11.555 10.032,11.897 9.645,12.172 C9.209,12.490 8.693,12.708 8.100,12.824 C7.505,12.941 6.860,13.000 6.166,13.000 L-0.000,13.000 L-0.000,-0.000 L6.613,-0.000 C8.279,0.026 9.461,0.484 10.159,1.385 C10.578,1.937 10.785,2.599 10.785,3.370 C10.785,4.165 10.575,4.800 10.152,5.284 C9.917,5.555 9.570,5.801 9.110,6.023 C9.806,6.265 10.335,6.647 10.688,7.172 ZM3.158,5.125 L6.055,5.125 C6.651,5.125 7.132,5.018 7.503,4.803 C7.873,4.588 8.058,4.207 8.058,3.660 C8.058,3.055 7.813,2.654 7.322,2.461 C6.901,2.326 6.361,2.257 5.706,2.257 L3.158,2.257 L3.158,5.125 ZM8.337,8.890 C8.337,8.215 8.046,7.748 7.466,7.498 C7.142,7.355 6.684,7.283 6.097,7.278 L3.158,7.278 L3.158,10.742 L6.051,10.742 C6.646,10.742 7.106,10.668 7.438,10.514 C8.037,10.231 8.337,9.691 8.337,8.890 ZM21.919,6.776 C21.985,7.201 22.015,7.818 22.003,8.625 L14.862,8.625 C14.902,9.560 15.242,10.215 15.887,10.589 C16.276,10.824 16.748,10.939 17.301,10.939 C17.883,10.939 18.358,10.799 18.724,10.512 C18.923,10.359 19.099,10.144 19.251,9.873 L21.868,9.873 C21.800,10.425 21.484,10.986 20.918,11.556 C20.041,12.461 18.810,12.915 17.229,12.915 C15.924,12.915 14.773,12.532 13.774,11.769 C12.779,11.004 12.279,9.762 12.279,8.039 C12.279,6.423 12.728,5.187 13.628,4.326 C14.532,3.464 15.699,3.035 17.137,3.035 C17.990,3.035 18.758,3.180 19.444,3.471 C20.127,3.762 20.692,4.220 21.137,4.849 C21.539,5.404 21.798,6.045 21.919,6.776 ZM19.342,7.018 C19.294,6.371 19.067,5.881 18.657,5.547 C18.251,5.211 17.743,5.042 17.137,5.042 C16.478,5.042 15.969,5.222 15.607,5.576 C15.243,5.930 15.016,6.410 14.924,7.018 L19.342,7.018 L19.342,7.018 Z" class="cls-1"/>
</svg>
