<svg xmlns="http://www.w3.org/2000/svg" xmlns:xlink="http://www.w3.org/1999/xlink" preserveAspectRatio="xMidYMid" width="25" height="25" viewBox="0 0 25 25">
  <defs>
    <style>
      .cls-1 {
        fill: #fff;
        fill-rule: evenodd;
      }
    </style>
  </defs>
  <path d="M12.500,25.000 C10.783,25.000 9.165,24.670 7.646,24.010 C6.128,23.350 4.804,22.456 3.674,21.326 C2.544,20.196 1.649,18.872 0.990,17.354 C0.330,15.835 -0.000,14.217 -0.000,12.500 C-0.000,10.783 0.330,9.165 0.990,7.646 C1.649,6.128 2.544,4.804 3.674,3.674 C4.804,2.544 6.128,1.649 7.646,0.990 C9.165,0.330 10.783,-0.000 12.500,-0.000 C14.217,-0.000 15.835,0.330 17.354,0.990 C18.872,1.649 20.196,2.544 21.326,3.674 C22.456,4.804 23.351,6.128 24.010,7.646 C24.670,9.165 25.000,10.783 25.000,12.500 C25.000,14.217 24.670,15.835 24.010,17.354 C23.351,18.872 22.456,20.196 21.326,21.326 C20.196,22.456 18.872,23.350 17.354,24.010 C15.835,24.670 14.217,25.000 12.500,25.000 ZM23.048,14.208 C22.957,14.190 22.713,14.127 22.316,14.018 C21.918,13.910 21.421,13.815 20.824,13.734 C20.228,13.652 19.545,13.603 18.777,13.585 C18.009,13.566 17.209,13.621 16.377,13.747 C16.721,14.705 17.019,15.614 17.272,16.472 C17.525,17.331 17.738,18.095 17.909,18.763 C18.081,19.432 18.208,19.993 18.289,20.445 C18.370,20.897 18.429,21.204 18.465,21.367 C19.658,20.553 20.657,19.532 21.461,18.303 C22.266,17.073 22.795,15.708 23.048,14.208 ZM16.676,22.343 C16.639,22.108 16.567,21.737 16.459,21.231 C16.350,20.725 16.206,20.115 16.025,19.401 C15.844,18.687 15.623,17.891 15.361,17.015 C15.099,16.138 14.778,15.211 14.398,14.235 C14.380,14.253 14.353,14.262 14.317,14.262 C12.816,14.787 11.542,15.415 10.493,16.147 C9.445,16.879 8.591,17.584 7.931,18.262 C7.271,18.940 6.788,19.532 6.480,20.038 C6.173,20.544 5.992,20.842 5.938,20.933 C6.860,21.638 7.872,22.189 8.975,22.587 C10.078,22.984 11.253,23.183 12.500,23.183 C13.964,23.183 15.356,22.903 16.676,22.343 ZM4.555,19.658 C4.609,19.550 4.835,19.206 5.233,18.628 C5.631,18.049 6.196,17.390 6.928,16.649 C7.660,15.907 8.550,15.162 9.599,14.412 C10.647,13.661 11.867,13.060 13.259,12.608 C13.331,12.572 13.399,12.550 13.462,12.541 C13.526,12.532 13.594,12.509 13.666,12.473 C13.521,12.166 13.377,11.867 13.232,11.578 C13.087,11.289 12.943,10.991 12.798,10.683 C11.461,11.081 10.159,11.384 8.894,11.591 C7.628,11.799 6.494,11.949 5.491,12.039 C4.487,12.129 3.656,12.179 2.996,12.188 C2.336,12.197 1.943,12.202 1.817,12.202 L1.817,12.527 C1.817,13.901 2.061,15.193 2.549,16.404 C3.037,17.616 3.706,18.700 4.555,19.658 ZM2.061,10.331 C2.169,10.331 2.513,10.326 3.091,10.317 C3.670,10.308 4.402,10.263 5.287,10.182 C6.173,10.100 7.190,9.969 8.338,9.788 C9.486,9.608 10.683,9.355 11.931,9.029 C11.479,8.252 11.031,7.511 10.588,6.806 C10.145,6.101 9.743,5.473 9.382,4.921 C9.020,4.370 8.713,3.914 8.460,3.552 C8.207,3.190 8.044,2.955 7.972,2.847 C6.453,3.552 5.174,4.560 4.135,5.870 C3.095,7.181 2.404,8.668 2.061,10.331 ZM10.005,2.142 C10.078,2.232 10.245,2.458 10.507,2.820 C10.769,3.181 11.085,3.642 11.456,4.203 C11.827,4.763 12.233,5.400 12.676,6.114 C13.119,6.828 13.557,7.583 13.991,8.379 C14.931,8.035 15.745,7.651 16.432,7.226 C17.119,6.801 17.688,6.399 18.140,6.019 C18.592,5.640 18.931,5.314 19.157,5.043 C19.383,4.772 19.523,4.600 19.577,4.528 C18.619,3.678 17.539,3.019 16.337,2.549 C15.135,2.079 13.856,1.844 12.500,1.844 C11.668,1.844 10.837,1.943 10.005,2.142 ZM20.770,5.775 C20.716,5.848 20.558,6.033 20.296,6.331 C20.033,6.629 19.663,6.982 19.184,7.389 C18.705,7.795 18.104,8.229 17.381,8.690 C16.658,9.151 15.799,9.581 14.805,9.978 C14.931,10.231 15.053,10.489 15.171,10.751 C15.288,11.013 15.401,11.271 15.510,11.524 C15.546,11.614 15.586,11.705 15.632,11.795 C15.677,11.885 15.718,11.976 15.754,12.066 C16.639,11.958 17.507,11.912 18.357,11.930 C19.206,11.949 19.975,11.989 20.662,12.053 C21.348,12.116 21.918,12.188 22.370,12.269 C22.822,12.351 23.093,12.400 23.183,12.419 C23.165,11.153 22.948,9.960 22.532,8.839 C22.117,7.719 21.529,6.697 20.770,5.775 Z" class="cls-1"/>
</svg>
