<svg xmlns="http://www.w3.org/2000/svg" xmlns:xlink="http://www.w3.org/1999/xlink" preserveAspectRatio="xMidYMid" width="22" height="20" viewBox="0 0 22 20">
  <defs>
    <style>
      .cls-1 {
        fill: #fff;
        opacity: 0.4;
        fill-rule: evenodd;
      }
    </style>
  </defs>
  <path d="M18.305,-0.000 L3.695,-0.000 C1.663,-0.000 -0.000,1.512 -0.000,3.359 L-0.000,16.641 C-0.000,18.488 1.663,20.000 3.695,20.000 L18.305,20.000 C20.337,20.000 22.000,18.488 22.000,16.641 L22.000,3.359 C22.000,1.512 20.337,-0.000 18.305,-0.000 ZM8.250,16.250 L5.500,16.250 L5.500,7.500 L8.250,7.500 L8.250,16.250 ZM6.875,6.250 C6.116,6.250 5.500,5.690 5.500,5.000 C5.500,4.310 6.116,3.750 6.875,3.750 C7.634,3.750 8.250,4.310 8.250,5.000 C8.250,5.690 7.634,6.250 6.875,6.250 ZM17.875,16.250 L15.125,16.250 L15.125,11.250 C15.125,10.560 14.509,10.000 13.750,10.000 C12.991,10.000 12.375,10.560 12.375,11.250 L12.375,16.250 L9.625,16.250 L9.625,7.500 L12.375,7.500 L12.375,9.052 C12.942,8.344 13.809,7.500 14.781,7.500 C16.490,7.500 17.875,8.899 17.875,10.625 L17.875,16.250 Z" class="cls-1"/>
</svg>
