<svg xmlns="http://www.w3.org/2000/svg" width="21" height="16" viewBox="0 0 21 16">
  <defs>
    <style>
      .cls-1 {
        fill: #fff;
        fill-rule: evenodd;
      }
    </style>
  </defs>
  <path d="M20.449,15.467 C20.082,15.824 19.641,16.002 19.125,16.002 L1.875,16.002 C1.359,16.002 0.918,15.824 0.551,15.467 C0.183,15.111 -0.000,14.683 -0.000,14.183 L-0.000,5.158 C0.344,5.530 0.738,5.859 1.184,6.147 C4.012,8.011 5.953,9.318 7.008,10.068 C7.453,10.387 7.814,10.635 8.092,10.813 C8.369,10.991 8.738,11.173 9.199,11.359 C9.660,11.544 10.090,11.637 10.488,11.637 L10.500,11.637 L10.512,11.637 C10.910,11.637 11.340,11.544 11.801,11.359 C12.262,11.173 12.631,10.991 12.908,10.813 C13.186,10.635 13.547,10.387 13.992,10.068 C15.320,9.136 17.266,7.829 19.828,6.147 C20.273,5.852 20.664,5.522 21.000,5.158 L21.000,14.183 C21.000,14.683 20.816,15.111 20.449,15.467 ZM18.996,4.931 C16.059,6.909 14.230,8.140 13.512,8.625 C13.434,8.678 13.267,8.793 13.014,8.971 C12.760,9.150 12.549,9.294 12.381,9.404 C12.213,9.514 12.010,9.636 11.772,9.773 C11.533,9.909 11.309,10.012 11.098,10.080 C10.887,10.148 10.691,10.182 10.512,10.182 L10.500,10.182 L10.488,10.182 C10.308,10.182 10.113,10.148 9.902,10.080 C9.691,10.012 9.467,9.909 9.228,9.773 C8.990,9.637 8.787,9.514 8.619,9.404 C8.451,9.294 8.240,9.150 7.986,8.971 C7.732,8.794 7.566,8.678 7.488,8.625 C6.777,8.140 5.754,7.449 4.418,6.551 C3.082,5.653 2.281,5.113 2.016,4.931 C1.531,4.613 1.074,4.175 0.644,3.618 C0.215,3.061 -0.000,2.544 -0.000,2.067 C-0.000,1.476 0.162,0.983 0.486,0.589 C0.810,0.195 1.273,-0.002 1.875,-0.002 L19.125,-0.002 C19.633,-0.002 20.072,0.176 20.443,0.532 C20.814,0.888 21.000,1.317 21.000,1.817 C21.000,2.415 20.809,2.987 20.426,3.533 C20.043,4.078 19.566,4.545 18.996,4.931 Z" class="cls-1"/>
</svg>
