<svg xmlns="http://www.w3.org/2000/svg" width="22" height="22" viewBox="0 0 22 22">
  <defs>
    <style>
      .cls-1 {
        fill: #fff;
        fill-rule: evenodd;
      }
    </style>
  </defs>
  <path d="M21.798,21.429 C21.568,21.786 21.178,22.000 20.755,22.000 L1.245,22.000 C0.822,22.000 0.432,21.786 0.202,21.429 C-0.029,21.071 -0.064,20.624 0.108,20.234 L2.596,14.575 C2.710,14.316 2.910,14.102 3.159,13.971 L7.021,11.941 C7.106,11.896 7.209,11.905 7.286,11.964 C8.378,12.798 9.662,13.239 11.000,13.239 C12.337,13.239 13.622,12.798 14.714,11.964 C14.791,11.905 14.894,11.896 14.979,11.941 L18.841,13.971 C19.090,14.102 19.290,14.316 19.404,14.575 L21.892,20.234 C22.064,20.624 22.028,21.071 21.798,21.429 ZM11.000,11.656 C8.276,11.656 6.067,9.047 6.067,5.828 C6.067,1.364 8.276,-0.000 11.000,-0.000 C13.724,-0.000 15.933,1.364 15.933,5.828 C15.933,9.047 13.724,11.656 11.000,11.656 Z" class="cls-1"/>
</svg>
