<svg version="1.1" xmlns="http://www.w3.org/2000/svg" x="0px" y="0px"
	 viewBox="0 0 1000 1000" style="enable-background:new 0 0 1000 1000;" xml:space="preserve">
<style type="text/css">
	.st10{display:none;}
	.st11{display:inline;opacity:0.15;}
	.st12{fill:#010101;}
	.st13{fill:#010101;stroke:#010101;stroke-width:6;stroke-miterlimit:10;}
	.st14{font-family:'Exo2-Bold';}
	.st15{font-size:187.5086px;}
	.st16{display:inline;}
	.st17{fill:#D27628;}
	.st18{fill:#D27628;stroke:#FFFFFF;stroke-width:6;stroke-miterlimit:10;}
	.st19{fill:#FFFFFF;}
	.st110{opacity:0.15;}
	.st111{fill:#4A69B2;}
	.st112{fill:#4A69B2;stroke:#FFFFFF;stroke-width:6;stroke-miterlimit:10;}
</style>
<g id="XMLID_3_" class="st0">
	<g id="XMLID_147_" class="st11">
		<path id="XMLID_159_" class="st12" d="M675,23.6l207.8,210.1v547c0,10.5-4.1,20.3-11.6,27.8s-17.3,11.6-27.8,11.6H305
			c-10.5,0-20.3-4.1-27.8-11.6c-7.5-7.5-11.6-17.3-11.6-27.8V63c0-10.5,4.1-20.3,11.6-27.8c7.5-7.5,17.3-11.6,27.8-11.6H675
			 M683.4,3.6H305c-32.7,0-59.4,26.7-59.4,59.4v717.7c0,32.7,26.7,59.4,59.4,59.4h538.5c32.7,0,59.4-26.7,59.4-59.4V225.5L683.4,3.6
			L683.4,3.6z"/>
		<path id="XMLID_158_" class="st12" d="M684,3.6v162.2c0,32.7,26.7,59.4,59.4,59.4h159.5L684,3.6z"/>
		<path id="XMLID_157_" class="st13" d="M626,507.1H118.6c-8.6,0-15.6-7-15.6-15.6V225.2c0-8.6,7-15.6,15.6-15.6H626
			c8.6,0,15.6,7,15.6,15.6v266.3C641.5,500.1,634.5,507.1,626,507.1z"/>
		<text id="XMLID_156_" transform="matrix(1 0 0 1 196.7384 421.8379)" class="st12 st4 st5">PDF</text>
		<polygon id="XMLID_155_" class="st13" points="666,754 666,576 480,576 480,754 382.6,754 571.5,988.7 760.5,754 		"/>
	</g>
	<g id="XMLID_119_" class="st16">
		<g id="XMLID_129_">
			<g id="XMLID_134_">
				<path id="XMLID_135_" class="st17" d="M672,20.6l207.8,210.1v547c0,10.5-4.1,20.3-11.6,27.8s-17.3,11.6-27.8,11.6H302
					c-10.5,0-20.3-4.1-27.8-11.6c-7.5-7.5-11.6-17.3-11.6-27.8V60c0-10.5,4.1-20.3,11.6-27.8c7.5-7.5,17.3-11.6,27.8-11.6H672
					 M680.4,0.6H302c-32.7,0-59.4,26.7-59.4,59.4v717.7c0,32.7,26.7,59.4,59.4,59.4h538.5c32.7,0,59.4-26.7,59.4-59.4V222.5
					L680.4,0.6L680.4,0.6z"/>
			</g>
			<path id="XMLID_133_" class="st17" d="M681,0.6v162.2c0,32.7,26.7,59.4,59.4,59.4h159.5L681,0.6z"/>
			<path id="XMLID_132_" class="st18" d="M623,504.1H115.6c-8.6,0-15.6-7-15.6-15.6V222.2c0-8.6,7-15.6,15.6-15.6H623
				c8.6,0,15.6,7,15.6,15.6v266.3C638.5,497.1,631.5,504.1,623,504.1z"/>
			<text id="XMLID_131_" transform="matrix(1 0 0 1 193.7384 418.8379)" class="st19 st4 st5">PDF</text>
			<polygon id="XMLID_130_" class="st18" points="663,751 663,573 477,573 477,751 379.6,751 568.5,985.7 757.5,751 			"/>
		</g>
	</g>
</g>
<g id="XMLID_4_">
	<g id="XMLID_267_" class="st110">
		<path id="XMLID_293_" class="st12" d="M676.7,23.1l207.1,209.4v545.4c0,10.4-4.1,20.2-11.5,27.7c-7.4,7.4-17.3,11.5-27.7,11.5
			H307.8c-10.4,0-20.2-4.1-27.7-11.5c-7.4-7.4-11.5-17.3-11.5-27.7V62.3c0-10.4,4.1-20.2,11.5-27.7c7.4-7.4,17.3-11.5,27.7-11.5
			H676.7 M685.1,3.1H307.8c-32.6,0-59.2,26.6-59.2,59.2v715.6c0,32.6,26.6,59.2,59.2,59.2h536.9c32.6,0,59.2-26.6,59.2-59.2V224.3
			L685.1,3.1L685.1,3.1z"/>
		<path id="XMLID_292_" class="st12" d="M685.7,3.1v161.7c0,32.6,26.7,59.2,59.2,59.2h159L685.7,3.1z"/>
		<path id="XMLID_291_" class="st13" d="M627.8,505.1H122c-8.6,0-15.6-7-15.6-15.6V224.1c0-8.6,7-15.6,15.6-15.6h505.8
			c8.6,0,15.6,7,15.6,15.6v265.4C643.3,498.1,636.3,505.1,627.8,505.1z"/>
		<path id="XMLID_288_" class="st12" d="M297.8,355.6c0,51-14.4,66.2-55,66.2c-19.4,0-35.3-0.7-50.1-1.7v-129
			c14.8-0.9,30.5-1.7,50.1-1.7C283.4,289.4,297.8,304.6,297.8,355.6z M267.9,355.6c0-33.8-5.8-43.9-25.1-43.9
			c-8.2,0-15.1,0.2-21.7,0.2v87.3c6.5,0,13.8,0.2,21.7,0.2C262.1,399.4,267.9,389.5,267.9,355.6z"/>
		<path id="XMLID_285_" class="st12" d="M426,355.6c0,51.8-14.6,66.9-55.3,66.9c-40.8,0-55.2-15.1-55.2-66.9s14.4-66.9,55.2-66.9
			C411.5,288.7,426,303.8,426,355.6z M345.5,355.6c0,34.2,5.8,43.9,25.2,43.9s25.2-9.7,25.2-43.9c0-34.2-5.8-43.9-25.2-43.9
			S345.5,321.4,345.5,355.6z"/>
		<path id="XMLID_283_" class="st12" d="M536.4,293.2l-2.4,21.3c-12.2-0.7-20-0.9-36.3-0.9c-18.7,0-24.3,9.5-24.3,42.1
			c0,32.5,5.6,42.1,24.3,42.1c17.2,0,27.5-0.2,38.9-1.7l2.4,21.1c-12,3.7-22.8,5.2-41.3,5.2c-39.8,0-54.2-17.6-54.2-66.7
			c0-49.2,14.4-66.7,54.2-66.7C515.8,288.9,524.6,290.2,536.4,293.2z"/>
		<polygon id="XMLID_282_" class="st13" points="664,755 664,570 480,570 480,755 385.2,755 573.6,989 762,755 		"/>
	</g>
	<g id="XMLID_215_">
		<g id="XMLID_233_">
			<g id="XMLID_246_">
				<path id="XMLID_247_" class="st111" d="M673.7,20.1l207.1,209.4v545.4c0,10.4-4.1,20.2-11.5,27.7c-7.4,7.4-17.3,11.5-27.7,11.5
					H304.8c-10.4,0-20.2-4.1-27.7-11.5c-7.4-7.4-11.5-17.3-11.5-27.7V59.3c0-10.4,4.1-20.2,11.5-27.7c7.4-7.4,17.3-11.5,27.7-11.5
					H673.7 M682.1,0.1H304.8c-32.6,0-59.2,26.6-59.2,59.2v715.6c0,32.6,26.6,59.2,59.2,59.2h536.9c32.6,0,59.2-26.6,59.2-59.2V221.3
					L682.1,0.1L682.1,0.1z"/>
			</g>
			<path id="XMLID_245_" class="st111" d="M682.7,0.1v161.7c0,32.6,26.7,59.2,59.2,59.2h159L682.7,0.1z"/>
			<path id="XMLID_244_" class="st112" d="M624.8,502.1H119c-8.6,0-15.6-7-15.6-15.6V221.1c0-8.6,7-15.6,15.6-15.6h505.8
				c8.6,0,15.6,7,15.6,15.6v265.4C640.3,495.1,633.3,502.1,624.8,502.1z"/>
			<g id="XMLID_235_">
				<path id="XMLID_241_" class="st19" d="M294.8,352.6c0,51-14.4,66.2-55,66.2c-19.4,0-35.3-0.7-50.1-1.7v-129
					c14.8-0.9,30.5-1.7,50.1-1.7C280.4,286.4,294.8,301.6,294.8,352.6z M264.9,352.6c0-33.8-5.8-43.9-25.1-43.9
					c-8.2,0-15.1,0.2-21.7,0.2v87.3c6.5,0,13.8,0.2,21.7,0.2C259.1,396.4,264.9,386.5,264.9,352.6z"/>
				<path id="XMLID_238_" class="st19" d="M423,352.6c0,51.8-14.6,66.9-55.3,66.9c-40.8,0-55.2-15.1-55.2-66.9s14.4-66.9,55.2-66.9
					C408.5,285.7,423,300.8,423,352.6z M342.5,352.6c0,34.2,5.8,43.9,25.2,43.9s25.2-9.7,25.2-43.9c0-34.2-5.8-43.9-25.2-43.9
					S342.5,318.4,342.5,352.6z"/>
				<path id="XMLID_236_" class="st19" d="M533.4,290.2l-2.4,21.3c-12.2-0.7-20-0.9-36.3-0.9c-18.7,0-24.3,9.5-24.3,42.1
					c0,32.5,5.6,42.1,24.3,42.1c17.2,0,27.5-0.2,38.9-1.7l2.4,21.1c-12,3.7-22.8,5.2-41.3,5.2c-39.8,0-54.2-17.6-54.2-66.7
					c0-49.2,14.4-66.7,54.2-66.7C512.8,285.9,521.6,287.2,533.4,290.2z"/>
			</g>
			<polygon id="XMLID_234_" class="st112" points="661,752 661,567 477,567 477,752 382.2,752 570.6,986 759,752 			"/>
		</g>
	</g>
</g>
</svg>
